<svg xmlns="http://www.w3.org/2000/svg" width="25" height="25" viewBox="0 0 25 25">
	<rect width="25" height="25" rx="5"/>
	<path fill="#fff" fill-rule="evenodd" d="M20.118 8.532c.12-.38 0-.658-.532-.658h-1.769c-.446 0-.652.243-.772.502 0 0-.91 2.216-2.181 3.653-.413.415-.601.554-.825.554-.12 0-.274-.139-.274-.52V8.516c0-.45-.138-.658-.516-.658h-2.781a.428.428 0 0 0-.447.416c0 .432.635.536.704 1.748v2.631c0 .571-.103.675-.326.675-.601 0-2.06-2.233-2.936-4.777-.172-.502-.344-.693-.79-.693H4.887c-.515 0-.601.243-.601.502 0 .468.6 2.822 2.799 5.938 1.46 2.129 3.537 3.271 5.409 3.271 1.133 0 1.27-.26 1.27-.692v-1.61c0-.52.104-.606.464-.606.258 0 .722.139 1.769 1.16 1.202 1.212 1.408 1.766 2.078 1.766h1.769c.515 0 .755-.26.618-.762-.155-.502-.739-1.229-1.494-2.095-.412-.484-1.03-1.02-1.22-1.28-.257-.347-.188-.485 0-.797-.017 0 2.147-3.081 2.37-4.12Z" clip-rule="evenodd"/>
</svg>
